<svg width="261" height="290" viewBox="0 0 261 290" fill="none" xmlns="http://www.w3.org/2000/svg">
<path d="M187.375 212.107C187.375 194.501 182.345 180.249 172.284 169.35C162.224 158.451 150.068 153.002 135.815 153.002C121.563 153.002 110.525 157.473 102.7 166.416C94.8751 175.079 90.9628 185.419 90.9628 197.435C90.9628 209.172 94.456 219.373 101.442 228.036C108.429 236.699 117.791 241.03 129.528 241.03C135.676 241.03 140.985 239.633 145.457 236.839C147.133 235.441 147.972 234.184 147.972 233.066C147.972 230.551 146.714 229.293 144.199 229.293C143.64 229.293 142.383 229.852 140.426 230.97C138.47 232.088 135.536 232.647 131.624 232.647C127.711 232.647 124.078 230.691 120.725 226.778C117.371 222.866 115.695 217.975 115.695 212.107C115.695 206.238 117.651 201.208 121.563 197.016C125.755 192.545 131.484 190.309 138.75 190.309C146.016 190.309 152.164 193.243 157.194 199.112C162.224 204.701 164.739 211.967 164.739 220.91C164.739 229.573 161.106 236.419 153.84 241.45C146.574 246.2 138.47 248.576 129.528 248.576C114.158 248.576 102.001 243.406 93.0587 233.066C84.3956 222.726 80.064 210.43 80.064 196.178C80.064 176.336 87.749 159.849 103.119 146.714C118.769 133.58 139.029 125.895 163.901 123.659C168.651 123.38 174.939 123.1 182.764 122.821C190.589 122.262 196.737 121.843 201.208 121.563C205.679 121.004 210.989 120.306 217.137 119.467C223.564 118.629 228.455 117.511 231.808 116.114C235.441 114.437 238.934 112.341 242.288 109.826C248.995 105.634 252.348 97.9492 252.348 86.7709C252.348 75.5927 248.715 66.7899 241.45 60.3624C234.463 53.6555 226.219 50.302 216.718 50.302C212.246 50.302 207.915 51.5595 203.723 54.0746C199.811 56.3103 197.854 58.6856 197.854 61.2007C197.854 63.7158 199.112 64.9734 201.627 64.9734C202.745 64.9734 204.142 63.9953 205.819 62.0391C207.775 59.8035 211.268 58.6856 216.299 58.6856C221.329 58.6856 225.66 60.7816 229.293 64.9734C233.206 69.1652 235.162 74.3352 235.162 80.4832C235.162 86.3518 232.926 91.5217 228.455 95.993C223.984 100.464 218.115 102.7 210.849 102.7C203.583 102.7 197.296 100.045 191.986 94.7354C186.956 89.1463 184.441 82.1599 184.441 73.7763C184.441 65.3926 187.794 58.1267 194.501 51.9787C201.208 45.8307 209.592 42.7567 219.652 42.7567C229.992 42.7567 239.354 47.0883 247.737 55.7514C256.121 64.135 260.313 75.0338 260.313 88.4477C260.313 101.862 257.099 113.04 250.672 121.982C244.244 130.925 236.419 137.213 227.197 140.846C208.474 148.67 191.427 152.583 176.057 152.583H166.416C185.419 166.555 194.92 184.86 194.92 207.496C194.92 229.852 186.257 249.135 168.931 265.343C151.605 281.272 127.292 289.236 95.993 289.236C64.9734 289.236 41.2197 280.713 24.7318 263.666C8.24394 246.62 0 227.896 0 207.496C0 187.095 5.16993 170.188 15.5098 156.775C25.8496 143.081 38.4251 132.741 53.2363 125.755L52.3979 121.563C26.9675 113.738 14.2522 95.7135 14.2522 67.4885C14.2522 47.6472 21.7975 31.4387 36.8881 18.8633C52.2582 6.28775 69.0255 0 87.1901 0C105.634 0 121.144 4.47129 133.719 13.4139C146.295 22.077 152.583 34.5127 152.583 50.7212C152.583 59.1048 149.788 66.2309 144.199 72.0995C138.889 77.6886 132.462 80.4832 124.917 80.4832C117.651 80.4832 111.642 78.3873 106.892 74.1954C102.42 69.7242 100.185 64.4145 100.185 58.2665C100.185 51.839 102.001 46.5293 105.634 42.3375C109.267 37.8662 113.738 35.6306 119.048 35.6306C124.358 35.6306 128.55 36.8881 131.624 39.4032C134.698 41.6389 136.374 44.154 136.654 46.9485C137.213 49.7431 138.61 51.1404 140.846 51.1404C143.361 51.1404 144.618 49.8828 144.618 47.3677C144.618 37.5868 140.007 28.7839 130.785 20.9592C121.843 13.1344 111.642 9.22204 100.185 9.22204C68.6063 9.22204 52.8171 28.5045 52.8171 67.0693C52.8171 80.4832 55.7514 91.9409 61.6199 101.442C67.768 110.664 76.5708 115.275 88.0285 115.275C94.1765 115.275 101.163 113.738 108.988 110.664L113.179 109.407L115.275 116.952C89.0066 125.336 70.5625 135.256 59.9432 146.714C49.3239 157.892 44.0142 175.917 44.0142 200.789C44.0142 225.381 51.1404 243.685 65.3926 255.702C79.6448 267.439 98.0889 273.307 120.725 273.307C137.213 273.307 152.443 267.579 166.416 256.121C180.389 244.384 187.375 229.712 187.375 212.107Z" fill="#F7E0CF"/>
</svg>
