<svg width="19" height="17" viewBox="0 0 19 17" fill="none" xmlns="http://www.w3.org/2000/svg">
<path d="M18.75 5.34001C18.75 5.57001 18.52 5.72001 18.3 5.66001C16.95 5.31001 15.47 5.60001 14.35 6.40001C14.13 6.56001 13.83 6.56001 13.62 6.40001C12.83 5.82001 11.87 5.50001 10.86 5.50001C8.28 5.50001 6.18 7.61001 6.18 10.21C6.18 13.03 7.53 15.14 8.89 16.55C8.96 16.62 8.9 16.74 8.81 16.7C6.08 15.77 0 11.91 0 5.34001C0 2.44001 2.33 0.100006 5.21 0.100006C6.92 0.100006 8.43 0.920006 9.38 2.19001C10.34 0.920006 11.85 0.100006 13.55 0.100006C16.42 0.100006 18.75 2.44001 18.75 5.34001Z" fill="#E0E0E0"/>
</svg>
