<svg width="48" height="48" viewBox="0 0 48 48" fill="none" xmlns="http://www.w3.org/2000/svg">
<circle cx="24" cy="24" r="24" fill="#F7E0CF"/>
<path d="M28.44 15.1001C26.63 15.1001 25.01 15.9801 24 17.3301C22.99 15.9801 21.37 15.1001 19.56 15.1001C16.49 15.1001 14 17.6001 14 20.6901C14 21.8801 14.19 22.9801 14.52 24.0001C16.1 29.0001 20.97 31.9901 23.38 32.8101C23.72 32.9301 24.28 32.9301 24.62 32.8101C27.03 31.9901 31.9 29.0001 33.48 24.0001C33.81 22.9801 34 21.8801 34 20.6901C34 17.6001 31.51 15.1001 28.44 15.1001Z" fill="#E1A170"/>
</svg>
