<svg width="50" height="50" viewBox="0 0 50 50" fill="none" xmlns="http://www.w3.org/2000/svg">
<circle cx="25" cy="25" r="25" fill="#F7E0CF"/>
<path d="M35 29.7399V17.6699C35 16.4699 34.02 15.5799 32.83 15.6799H32.77C30.67 15.8599 27.48 16.9299 25.7 18.0499L25.53 18.1599C25.24 18.3399 24.76 18.3399 24.47 18.1599L24.22 18.0099C22.44 16.8999 19.26 15.8399 17.16 15.6699C15.97 15.5699 15 16.4699 15 17.6599V29.7399C15 30.6999 15.78 31.5999 16.74 31.7199L17.03 31.7599C19.2 32.0499 22.55 33.1499 24.47 34.1999L24.51 34.2199C24.78 34.3699 25.21 34.3699 25.47 34.2199C27.39 33.1599 30.75 32.0499 32.93 31.7599L33.26 31.7199C34.22 31.5999 35 30.6999 35 29.7399Z" stroke="#E1A170" stroke-width="1.5" stroke-linecap="round" stroke-linejoin="round"/>
<path d="M25 18.49V33.49" stroke="#E1A170" stroke-width="1.5" stroke-linecap="round" stroke-linejoin="round"/>
</svg>
