<svg width="51" height="50" viewBox="0 0 51 50" fill="none" xmlns="http://www.w3.org/2000/svg">
<circle cx="25.5" cy="25" r="25" fill="#F7E0CF"/>
<path d="M35.43 19.76L32.06 33.29C31.82 34.3 30.92 35 29.88 35H16.74C15.23 35 14.15 33.5199 14.6 32.0699L18.81 18.55C19.1 17.61 19.97 16.96 20.95 16.96H33.25C34.2 16.96 34.99 17.54 35.32 18.34C35.51 18.77 35.55 19.26 35.43 19.76Z" stroke="#E1A170" stroke-width="1.5" stroke-miterlimit="10"/>
<path d="M29.5 35H34.28C35.57 35 36.58 33.91 36.49 32.62L35.5 19" stroke="#E1A170" stroke-width="1.5" stroke-miterlimit="10" stroke-linecap="round" stroke-linejoin="round"/>
<path d="M23.18 19.38L24.22 15.0601" stroke="#E1A170" stroke-width="1.5" stroke-miterlimit="10" stroke-linecap="round" stroke-linejoin="round"/>
<path d="M29.88 19.3898L30.82 15.0498" stroke="#E1A170" stroke-width="1.5" stroke-miterlimit="10" stroke-linecap="round" stroke-linejoin="round"/>
<path d="M21.2 25H29.2" stroke="#E1A170" stroke-width="1.5" stroke-miterlimit="10" stroke-linecap="round" stroke-linejoin="round"/>
<path d="M20.2 29H28.2" stroke="#E1A170" stroke-width="1.5" stroke-miterlimit="10" stroke-linecap="round" stroke-linejoin="round"/>
</svg>
