<svg width="51" height="50" viewBox="0 0 51 50" fill="none" xmlns="http://www.w3.org/2000/svg">
<circle cx="25.5" cy="25" r="25" fill="#F7E0CF"/>
<path d="M25.5 15V21L27.5 19" stroke="#E1A170" stroke-width="1.5" stroke-linecap="round" stroke-linejoin="round"/>
<path d="M25.5 21L23.5 19" stroke="#E1A170" stroke-width="1.5" stroke-linecap="round" stroke-linejoin="round"/>
<path d="M20.5 25C16.5 25 16.5 26.79 16.5 29V30C16.5 32.76 16.5 35 21.5 35H29.5C33.5 35 34.5 32.76 34.5 30V29C34.5 26.79 34.5 25 30.5 25C29.5 25 29.22 25.21 28.7 25.6L27.68 26.68C26.5 27.94 24.5 27.94 23.31 26.68L22.3 25.6C21.78 25.21 21.5 25 20.5 25Z" stroke="#E1A170" stroke-width="1.5" stroke-miterlimit="10" stroke-linecap="round" stroke-linejoin="round"/>
<path d="M18.5 25V21C18.5 18.99 18.5 17.33 21.5 17.04" stroke="#E1A170" stroke-width="1.5" stroke-miterlimit="10" stroke-linecap="round" stroke-linejoin="round"/>
<path d="M32.5 25V21C32.5 18.99 32.5 17.33 29.5 17.04" stroke="#E1A170" stroke-width="1.5" stroke-miterlimit="10" stroke-linecap="round" stroke-linejoin="round"/>
</svg>
