<svg width="21" height="19" viewBox="0 0 21 19" fill="none" xmlns="http://www.w3.org/2000/svg">
<path d="M20.82 2.33C20.49 1.53 19.71 0.960002 18.75 0.960002H16.67L16.11 3.55C16.03 3.9 15.72 4.14 15.38 4.14C15.33 4.14 15.27 4.14 15.22 4.12C14.82 4.03 14.56 3.63 14.64 3.23L15.13 0.950002H10.03L9.4 3.55C9.32 3.89 9.01 4.12 8.67 4.12C8.61 4.12 8.55 4.11 8.49 4.1C8.09 4 7.84 3.6 7.94 3.19L8.48 0.940002H6.45C5.47 0.940002 4.6 1.58 4.31 2.52L0.0999986 16.07C-0.340001 17.52 0.729999 19 2.24 19H15.38C16.42 19 17.32 18.3 17.56 17.29L20.93 3.76C20.99 3.51 21.01 3.26 20.99 3.02C20.97 2.78 20.92 2.54 20.82 2.33ZM13.7 13.75H5.7C5.29 13.75 4.95 13.41 4.95 13C4.95 12.59 5.29 12.25 5.7 12.25H13.7C14.11 12.25 14.45 12.59 14.45 13C14.45 13.41 14.11 13.75 13.7 13.75ZM14.7 9.75H6.7C6.29 9.75 5.95 9.41 5.95 9C5.95 8.59 6.29 8.25 6.7 8.25H14.7C15.11 8.25 15.45 8.59 15.45 9C15.45 9.41 15.11 9.75 14.7 9.75Z" fill="#E0E0E0"/>
</svg>
