<svg width="25" height="24" viewBox="0 0 25 24" fill="none" xmlns="http://www.w3.org/2000/svg">
<path d="M12.5052 3C8.74681 3 7.64764 3.00388 7.43398 3.0216C6.66271 3.08572 6.18277 3.20716 5.65991 3.46749C5.25696 3.66758 4.93918 3.89953 4.62554 4.22466C4.05436 4.81761 3.70818 5.54709 3.58287 6.41421C3.52194 6.83517 3.50422 6.92102 3.50062 9.07124C3.49923 9.78798 3.50062 10.7313 3.50062 11.9965C3.50062 15.7519 3.50477 16.85 3.52277 17.0633C3.58508 17.8138 3.70278 18.286 3.95203 18.8025C4.42836 19.7912 5.33811 20.5334 6.40986 20.8104C6.78096 20.9059 7.19083 20.9585 7.71701 20.9834C7.93995 20.9931 10.2122 21.0001 12.4859 21.0001C14.7596 21.0001 17.0332 20.9973 17.2506 20.9862C17.8599 20.9576 18.2137 20.9101 18.6049 20.809C19.6836 20.5306 20.5767 19.7995 21.0627 18.7969C21.3071 18.2929 21.431 17.8027 21.4871 17.0914C21.4993 16.9363 21.5044 14.4635 21.5044 11.9941C21.5044 9.52433 21.4989 7.05617 21.4867 6.90108C21.4299 6.17825 21.306 5.69221 21.0537 5.17847C20.8467 4.75792 20.6168 4.44387 20.2831 4.12275C19.6876 3.55389 18.9592 3.20771 18.0913 3.08253C17.6708 3.02174 17.587 3.00374 15.4352 3H12.5052Z" fill="url(#paint0_radial_420_131)"/>
<path d="M12.5052 3C8.74681 3 7.64764 3.00388 7.43398 3.0216C6.66271 3.08572 6.18277 3.20716 5.65991 3.46749C5.25696 3.66758 4.93918 3.89953 4.62554 4.22466C4.05436 4.81761 3.70818 5.54709 3.58287 6.41421C3.52194 6.83517 3.50422 6.92102 3.50062 9.07124C3.49923 9.78798 3.50062 10.7313 3.50062 11.9965C3.50062 15.7519 3.50477 16.85 3.52277 17.0633C3.58508 17.8138 3.70278 18.286 3.95203 18.8025C4.42836 19.7912 5.33811 20.5334 6.40986 20.8104C6.78096 20.9059 7.19083 20.9585 7.71701 20.9834C7.93995 20.9931 10.2122 21.0001 12.4859 21.0001C14.7596 21.0001 17.0332 20.9973 17.2506 20.9862C17.8599 20.9576 18.2137 20.9101 18.6049 20.809C19.6836 20.5306 20.5767 19.7995 21.0627 18.7969C21.3071 18.2929 21.431 17.8027 21.4871 17.0914C21.4993 16.9363 21.5044 14.4635 21.5044 11.9941C21.5044 9.52433 21.4989 7.05617 21.4867 6.90108C21.4299 6.17825 21.306 5.69221 21.0537 5.17847C20.8467 4.75792 20.6168 4.44387 20.2831 4.12275C19.6876 3.55389 18.9592 3.20771 18.0913 3.08253C17.6708 3.02174 17.587 3.00374 15.4352 3H12.5052Z" fill="url(#paint1_radial_420_131)"/>
<path d="M12.501 5.35449C10.6959 5.35449 10.4694 5.36239 9.76042 5.39465C9.05284 5.42705 8.56985 5.53908 8.14725 5.70345C7.7101 5.87321 7.33928 6.10031 6.96984 6.4699C6.60012 6.83935 6.37303 7.21018 6.20272 7.6472C6.03794 8.06996 5.92578 8.5531 5.89393 9.26042C5.86222 9.96941 5.85391 10.1961 5.85391 12.0012C5.85391 13.8064 5.86194 14.0322 5.89407 14.7412C5.92661 15.4488 6.03863 15.9318 6.20286 16.3544C6.37276 16.7916 6.59985 17.1624 6.96942 17.5319C7.33872 17.9016 7.70954 18.1292 8.14641 18.299C8.5693 18.4634 9.05242 18.5754 9.75986 18.6078C10.4688 18.6401 10.6952 18.648 12.5002 18.648C14.3054 18.648 14.5312 18.6401 15.2402 18.6078C15.9478 18.5754 16.4313 18.4634 16.8542 18.299C17.2912 18.1292 17.6615 17.9016 18.0308 17.5319C18.4005 17.1624 18.6276 16.7916 18.7979 16.3546C18.9613 15.9318 19.0735 15.4487 19.1067 14.7414C19.1385 14.0324 19.1469 13.8064 19.1469 12.0012C19.1469 10.1961 19.1385 9.96955 19.1067 9.26056C19.0735 8.55296 18.9613 8.06996 18.7979 7.64734C18.6276 7.21018 18.4005 6.83935 18.0308 6.4699C17.6611 6.10017 17.2914 5.87308 16.8538 5.70345C16.4301 5.53908 15.9468 5.42705 15.2392 5.39465C14.5303 5.36239 14.3046 5.35449 12.4989 5.35449H12.501ZM11.9048 6.55229C12.0817 6.55201 12.2792 6.55229 12.501 6.55229C14.2756 6.55229 14.486 6.55866 15.1868 6.59051C15.8348 6.62014 16.1865 6.72843 16.4208 6.81941C16.731 6.93988 16.9521 7.08389 17.1846 7.31653C17.4172 7.54916 17.5612 7.77072 17.682 8.0809C17.773 8.31492 17.8814 8.66665 17.9109 9.3147C17.9427 10.0154 17.9496 10.2259 17.9496 11.9997C17.9496 13.7736 17.9427 13.984 17.9109 14.6847C17.8812 15.3328 17.773 15.6845 17.682 15.9185C17.5615 16.2287 17.4172 16.4496 17.1846 16.6821C16.952 16.9147 16.7311 17.0587 16.4208 17.1792C16.1868 17.2706 15.8348 17.3786 15.1868 17.4082C14.4861 17.4401 14.2756 17.447 12.501 17.447C10.7262 17.447 10.5159 17.4401 9.81525 17.4082C9.16721 17.3783 8.8155 17.27 8.58107 17.179C8.2709 17.0586 8.04935 16.9146 7.81672 16.6819C7.58409 16.4493 7.44008 16.2283 7.31934 15.918C7.22836 15.6839 7.11994 15.3322 7.09045 14.6842C7.0586 13.9835 7.05223 13.773 7.05223 11.998C7.05223 10.2231 7.0586 10.0137 7.09045 9.31304C7.12008 8.66498 7.22836 8.31326 7.31934 8.07896C7.4398 7.76878 7.58409 7.54722 7.81672 7.31459C8.04935 7.08195 8.2709 6.93794 8.58107 6.81719C8.81536 6.7258 9.16721 6.61779 9.81525 6.58802C10.4284 6.56032 10.666 6.55201 11.9048 6.55063V6.55229ZM16.0489 7.65593C15.6085 7.65593 15.2513 8.01277 15.2513 8.45326C15.2513 8.8936 15.6085 9.25087 16.0489 9.25087C16.4892 9.25087 16.8465 8.8936 16.8465 8.45326C16.8465 8.01291 16.4892 7.65565 16.0489 7.65565V7.65593ZM12.501 8.58785C10.616 8.58785 9.08773 10.1162 9.08773 12.0012C9.08773 13.8863 10.616 15.4139 12.501 15.4139C14.386 15.4139 15.9137 13.8863 15.9137 12.0012C15.9137 10.1162 14.3859 8.58785 12.5009 8.58785H12.501ZM12.501 9.78565C13.7245 9.78565 14.7165 10.7775 14.7165 12.0012C14.7165 13.2248 13.7245 14.2168 12.501 14.2168C11.2773 14.2168 10.2855 13.2248 10.2855 12.0012C10.2855 10.7775 11.2773 9.78565 12.501 9.78565Z" fill="white"/>
<defs>
<radialGradient id="paint0_radial_420_131" cx="0" cy="0" r="1" gradientUnits="userSpaceOnUse" gradientTransform="translate(8.28245 22.3864) rotate(-90) scale(17.8394 16.5961)">
<stop stop-color="#FFDD55"/>
<stop offset="0.1" stop-color="#FFDD55"/>
<stop offset="0.5" stop-color="#FF543E"/>
<stop offset="1" stop-color="#C837AB"/>
</radialGradient>
<radialGradient id="paint1_radial_420_131" cx="0" cy="0" r="1" gradientUnits="userSpaceOnUse" gradientTransform="translate(0.484162 4.29669) rotate(78.678) scale(7.97436 32.878)">
<stop stop-color="#3771C8"/>
<stop offset="0.128" stop-color="#3771C8"/>
<stop offset="1" stop-color="#6600FF" stop-opacity="0"/>
</radialGradient>
</defs>
</svg>
