<svg width="32" height="32" viewBox="0 0 32 32" fill="none" xmlns="http://www.w3.org/2000/svg">
<path d="M16.0069 4C10.9957 4 9.53019 4.00517 9.24531 4.0288C8.21694 4.11429 7.57703 4.27621 6.87988 4.62332C6.34262 4.89011 5.9189 5.19937 5.50072 5.63288C4.73914 6.42348 4.27758 7.39612 4.11049 8.55228C4.02925 9.11356 4.00562 9.22803 4.00082 12.095C3.99897 13.0506 4.00082 14.3084 4.00082 15.9953C4.00082 21.0025 4.00636 22.4667 4.03036 22.751C4.11344 23.7517 4.27037 24.3813 4.6027 25.07C5.23782 26.3883 6.45081 27.3779 7.87982 27.7471C8.37461 27.8745 8.92111 27.9447 9.62269 27.9779C9.91993 27.9909 12.9496 28.0001 15.9812 28.0001C19.0128 28.0001 22.0443 27.9964 22.3342 27.9816C23.1466 27.9434 23.6183 27.8801 24.1398 27.7453C25.5781 27.3742 26.7689 26.3993 27.417 25.0626C27.7428 24.3905 27.9081 23.7369 27.9828 22.7885C27.9991 22.5817 28.0059 19.2847 28.0059 15.9922C28.0059 12.6991 27.9985 9.40823 27.9823 9.20144C27.9066 8.23767 27.7413 7.58961 27.405 6.90463C27.1289 6.3439 26.8225 5.92515 26.3775 5.49699C25.5834 4.73853 24.6123 4.27695 23.4551 4.11004C22.8944 4.02899 22.7827 4.00499 19.9136 4H16.0069Z" fill="#E1A170"/>
<path d="M16.0013 7.1394C13.5946 7.1394 13.2925 7.14993 12.3472 7.19295C11.4038 7.23615 10.7598 7.38552 10.1963 7.60468C9.61346 7.83103 9.11903 8.13383 8.62645 8.62661C8.1335 9.11921 7.83071 9.61365 7.60362 10.1964C7.38392 10.76 7.23437 11.4042 7.19191 12.3473C7.14963 13.2926 7.13855 13.5949 7.13855 16.0017C7.13855 18.4086 7.14926 18.7097 7.19209 19.655C7.23548 20.5985 7.38484 21.2425 7.60381 21.806C7.83034 22.3889 8.13313 22.8833 8.6259 23.3759C9.1183 23.8689 9.61272 24.1724 10.1952 24.3988C10.7591 24.6179 11.4032 24.7673 12.3465 24.8105C13.2918 24.8535 13.5936 24.864 16.0002 24.864C18.4072 24.864 18.7083 24.8535 19.6536 24.8105C20.5971 24.7673 21.2418 24.6179 21.8056 24.3988C22.3883 24.1724 22.882 23.8689 23.3744 23.3759C23.8673 22.8833 24.1701 22.3889 24.3972 21.8062C24.6151 21.2425 24.7646 20.5983 24.8089 19.6552C24.8514 18.7099 24.8625 18.4086 24.8625 16.0017C24.8625 13.5949 24.8514 13.2928 24.8089 12.3475C24.7646 11.404 24.6151 10.76 24.3972 10.1965C24.1701 9.61365 23.8673 9.11921 23.3744 8.62661C22.8814 8.13365 22.3885 7.83085 21.8051 7.60468C21.2401 7.38552 20.5958 7.23615 19.6523 7.19295C18.707 7.14993 18.4061 7.1394 15.9986 7.1394H16.0013ZM15.2063 8.73647C15.4423 8.7361 15.7056 8.73647 16.0013 8.73647C18.3675 8.73647 18.648 8.74496 19.5823 8.78743C20.4464 8.82694 20.9153 8.97132 21.2277 9.09262C21.6413 9.25325 21.9361 9.44527 22.2461 9.75545C22.5563 10.0656 22.7483 10.361 22.9093 10.7746C23.0306 11.0866 23.1752 11.5556 23.2145 12.4197C23.257 13.3539 23.2662 13.6346 23.2662 15.9997C23.2662 18.3648 23.257 18.6455 23.2145 19.5797C23.175 20.4438 23.0306 20.9127 22.9093 21.2248C22.7487 21.6383 22.5563 21.9328 22.2461 22.2428C21.936 22.553 21.6415 22.745 21.2277 22.9057C20.9157 23.0275 20.4464 23.1715 19.5823 23.211C18.6481 23.2535 18.3675 23.2627 16.0013 23.2627C13.635 23.2627 13.3545 23.2535 12.4203 23.211C11.5563 23.1712 11.0873 23.0268 10.7748 22.9055C10.3612 22.7448 10.0658 22.5528 9.75562 22.2426C9.44545 21.9325 9.25344 21.6378 9.09245 21.224C8.97115 20.912 8.82659 20.443 8.78726 19.579C8.7448 18.6447 8.7363 18.3641 8.7363 15.9975C8.7363 13.6309 8.7448 13.3517 8.78726 12.4175C8.82677 11.5534 8.97115 11.0844 9.09245 10.772C9.25307 10.3585 9.44545 10.063 9.75562 9.75287C10.0658 9.44268 10.3612 9.25067 10.7748 9.08967C11.0871 8.96781 11.5563 8.8238 12.4203 8.7841C13.2379 8.74718 13.5547 8.7361 15.2063 8.73425V8.73647ZM20.7318 10.208C20.1447 10.208 19.6684 10.6838 19.6684 11.2711C19.6684 11.8582 20.1447 12.3346 20.7318 12.3346C21.3189 12.3346 21.7953 11.8582 21.7953 11.2711C21.7953 10.684 21.3189 10.2076 20.7318 10.2076V10.208ZM16.0013 11.4506C13.488 11.4506 11.4503 13.4883 11.4503 16.0017C11.4503 18.5151 13.488 20.552 16.0013 20.552C18.5147 20.552 20.5516 18.5151 20.5516 16.0017C20.5516 13.4883 18.5145 11.4506 16.0012 11.4506H16.0013ZM16.0013 13.0476C17.6327 13.0476 18.9554 14.3701 18.9554 16.0017C18.9554 17.6331 17.6327 18.9558 16.0013 18.9558C14.3698 18.9558 13.0473 17.6331 13.0473 16.0017C13.0473 14.3701 14.3698 13.0476 16.0013 13.0476Z" fill="white"/>
</svg>
