<svg width="48" height="48" viewBox="0 0 48 48" fill="none" xmlns="http://www.w3.org/2000/svg">
<circle cx="24" cy="24" r="24" fill="white"/>
<path d="M24 14C21.38 14 19.25 16.13 19.25 18.75C19.25 21.32 21.26 23.4 23.88 23.49C23.96 23.48 24.04 23.48 24.1 23.49C24.12 23.49 24.13 23.49 24.15 23.49C24.16 23.49 24.16 23.49 24.17 23.49C26.73 23.4 28.74 21.32 28.75 18.75C28.75 16.13 26.62 14 24 14Z" fill="#E0E0E0"/>
<path d="M29.08 26.1499C26.29 24.2899 21.74 24.2899 18.93 26.1499C17.66 26.9999 16.96 28.1499 16.96 29.3799C16.96 30.6099 17.66 31.7499 18.92 32.5899C20.32 33.5299 22.16 33.9999 24 33.9999C25.84 33.9999 27.68 33.5299 29.08 32.5899C30.34 31.7399 31.04 30.5999 31.04 29.3599C31.03 28.1299 30.34 26.9899 29.08 26.1499Z" fill="#E0E0E0"/>
</svg>
