<svg width="129" height="45" viewBox="0 0 129 45" fill="none" xmlns="http://www.w3.org/2000/svg">
<path d="M3.60283 0C4.29319 0 4.96809 0.204721 5.5425 0.588339C6.11692 0.971958 6.56509 1.51732 6.83062 2.1557C16.2941 3.16005 24.7061 10.509 33.5827 18.2988C43.3641 26.8726 53.4633 35.7403 65.2254 35.7403C67.4518 35.7729 69.6624 35.3605 71.7278 34.5272C73.7932 33.6939 75.6721 32.4565 77.2545 30.8873C78.8369 29.318 80.0911 27.4485 80.9438 25.388C81.7965 23.3274 82.2306 21.1173 82.2206 18.8868C82.2985 17.0554 81.9992 15.2275 81.3412 13.517C80.6832 11.8066 79.6805 10.2502 78.3959 8.94489C77.1112 7.63955 75.5719 6.61319 73.874 5.92982C72.176 5.24644 70.3558 4.92066 68.5266 4.97278C65.5194 4.97925 62.6372 6.17888 60.5107 8.30908C58.3842 10.4393 57.1868 13.3266 57.1803 16.3391C57.1867 18.6695 58.1137 20.9026 59.7586 22.5504C61.4036 24.1983 63.6328 25.1269 65.9591 25.1334C67.7406 25.1269 69.4473 24.4151 70.707 23.1532C71.9667 21.8912 72.6773 20.1815 72.6838 18.3969C72.683 17.1247 72.2026 15.8998 71.3388 14.9673C71.0938 15.8067 70.556 16.5301 69.8234 17.0058C69.0908 17.4814 68.2121 17.6778 67.3472 17.5591C66.4822 17.4404 65.6886 17.0146 65.1107 16.359C64.5328 15.7035 64.2091 14.862 64.1984 13.9875C64.2304 12.9977 64.6521 12.0607 65.3715 11.3814C66.0908 10.7021 67.0493 10.3356 68.0375 10.362C70.1046 10.4386 72.0598 11.3219 73.4854 12.8233C74.911 14.3246 75.694 16.3249 75.6671 18.3969C75.6671 20.9956 74.6366 23.4879 72.8022 25.3255C70.9678 27.1631 68.4799 28.1954 65.8857 28.1954C62.7747 28.189 59.7929 26.948 57.593 24.7443C55.3932 22.5406 54.1545 19.5536 54.148 16.4371C54.1545 12.6385 55.6637 8.99723 58.3451 6.31115C61.0264 3.62508 64.6613 2.11317 68.4533 2.1067C70.6725 2.04111 72.8815 2.43352 74.9428 3.25953C77.0042 4.08554 78.874 5.32748 80.4358 6.90817C81.9977 8.48885 83.2182 10.3745 84.0217 12.4478C84.8251 14.5212 85.1942 16.7379 85.1061 18.9603C85.1712 24.0351 83.2487 28.9333 79.7508 32.6048C83.4677 30.8655 87.0868 28.6853 90.9994 26.4072C99.5825 21.3119 108.484 16.0452 118.509 16.0452C120.231 15.9009 121.963 16.1304 123.588 16.718C125.213 17.3057 126.692 18.2376 127.924 19.4502L128.095 19.6217C128.657 20.2689 128.977 21.0915 129 21.9488C128.998 22.5033 128.863 23.0491 128.604 23.5395C128.346 24.0299 127.973 24.4503 127.517 24.7645C127.061 25.0788 126.536 25.2776 125.986 25.3439C125.436 25.4103 124.879 25.3421 124.362 25.1453C123.844 24.9486 123.382 24.629 123.015 24.2141C122.648 23.7992 122.386 23.3013 122.253 22.7631C122.12 22.2248 122.12 21.6623 122.251 21.1237C122.383 20.5851 122.643 20.0865 123.009 19.6706C121.557 19.1982 120.036 18.9747 118.509 19.0093C109.266 19.0093 100.756 24.08 92.4666 28.9793C84.1769 33.8786 75.3491 39.0719 65.8368 39.0719C62.57 39.062 59.3315 38.4646 56.2755 37.3081H56.1043C48.0592 34.6135 40.8698 28.7589 33.9739 22.7572C35.3204 25.6372 35.9897 28.7882 35.9303 31.9679C35.9238 35.4222 34.5511 38.7332 32.1128 41.1758C29.6745 43.6184 26.3693 44.9935 22.921 45C20.0804 45 17.3561 43.8696 15.3475 41.8574C13.3388 39.8452 12.2104 37.1162 12.2104 34.2705C12.2169 31.9207 13.1516 29.6689 14.8103 28.0073C16.469 26.3457 18.7168 25.4093 21.0625 25.4028C23.0082 25.4028 24.8742 26.1771 26.2499 27.5553C27.6257 28.9335 28.3986 30.8027 28.3986 32.7518C28.3924 33.5601 28.0725 34.3342 27.5066 34.9103C26.9406 35.4864 26.173 35.8192 25.3664 35.8383C24.6485 35.8438 23.9521 35.5939 23.4009 35.1332C22.8497 34.6725 22.4795 34.0308 22.3562 33.3224C22.233 32.6139 22.3646 31.8846 22.7277 31.2643C23.0909 30.644 23.6619 30.1728 24.3393 29.9347C23.9249 29.4589 23.4138 29.0772 22.8403 28.8153C22.2667 28.5534 21.644 28.4172 21.0137 28.4159C19.4526 28.4223 17.9574 29.0464 16.8536 30.1522C15.7497 31.2579 15.1268 32.7558 15.1204 34.3195C15.1204 36.3791 15.9371 38.3542 17.3908 39.8105C18.8445 41.2668 20.8162 42.0849 22.8721 42.0849C25.5356 42.0784 28.0883 41.0156 29.9717 39.1289C31.8551 37.2422 32.916 34.6851 32.9225 32.0169C32.9225 24.6679 29.6212 20.1851 22.7987 13.3261C18.4215 9.89657 12.724 5.97713 6.58614 5.31572C6.29589 5.86398 5.86543 6.32518 5.33885 6.65208C4.81226 6.97898 4.20845 7.15987 3.58917 7.17625C2.96989 7.19262 2.35734 7.04388 1.81426 6.74527C1.27119 6.44666 0.817047 6.0089 0.498306 5.47675C0.179581 4.9446 0.00770569 4.33718 0.000259399 3.71663C-0.00720215 3.09608 0.15007 2.48468 0.455917 1.945C0.76178 1.40531 1.20525 0.956734 1.74098 0.645117C2.27673 0.333501 2.88549 0.170049 3.50499 0.171493L3.60283 0Z" fill="#F7E0CF"/>
</svg>
