<svg width="156" height="64" viewBox="0 0 156 64" fill="none" xmlns="http://www.w3.org/2000/svg">
<path d="M31.9798 50.2298V53.0461H10.2959C9.35995 54.8186 8.11196 55.7066 6.55197 55.7066H6.23997C4.99197 55.7066 3.89998 55.0803 2.96399 53.8285L2.80799 53.6724C1.97417 53.6724 1.45508 53.9853 1.24799 54.6105C1.24799 55.5493 1.19417 56.0196 1.09199 56.0196C0.987085 56.0196 0.935995 55.7575 0.935995 55.2372C0.311998 53.8797 0 53.0461 0 52.7335C0 51.6894 0.831086 50.9586 2.49599 50.5428C2.49599 50.1246 2.80799 49.5499 3.43198 48.8215C4.36798 49.6556 5.19906 50.0733 5.92797 50.0733H6.08397C4.93816 50.0733 3.89998 49.447 2.96399 48.1956H2.80799C1.87199 48.2985 1.40399 48.4542 1.40399 48.6646C1.29908 48.6646 1.24799 48.9236 1.24799 49.447V50.0733C1.24799 50.4892 1.19417 50.6993 1.09199 50.6993C0.987085 50.6993 0.935995 50.3863 0.935995 49.7612C0.311998 48.4033 0 47.4644 0 46.9438C0 46.0049 0.831086 45.3246 2.49599 44.9095C2.91056 43.7602 3.53455 42.9269 4.36798 42.4063C5.09415 42.0929 5.77197 41.9372 6.39597 41.9372C7.74614 41.9372 8.89196 42.5631 9.82795 43.815C9.93013 43.9178 10.035 44.1279 10.1399 44.4409H13.1039V44.1279C13.1039 42.9786 12.843 42.0401 12.3239 41.3113C13.0501 40.9983 13.623 40.6854 14.0399 40.3732C14.871 39.5364 15.4439 38.5467 15.7559 37.3993L16.0679 36.304H16.2239V44.4409H22.1519V43.6585C22.1519 42.3014 22.6199 40.3188 23.5559 37.7127C23.6585 37.0864 23.7119 36.6169 23.7119 36.304C23.7119 35.3655 23.1905 34.7392 22.1519 34.4262L21.2159 34.2697C19.9679 34.2697 19.0319 34.9469 18.4079 36.304C18.4079 36.6169 18.3541 36.7734 18.2519 36.7734V36.6169C18.2519 34.6347 19.083 33.226 20.7479 32.392C20.2261 31.3483 19.9679 30.4094 19.9679 29.5754C19.9679 29.1572 20.0701 28.3235 20.2799 27.0721V26.6015V26.445C20.2799 25.922 20.0701 25.4521 19.6559 25.0367V24.8802V24.7237H19.8119C20.5385 25.244 21.1114 26.0264 21.5279 27.0709C21.6301 27.6968 21.7861 28.5813 21.9959 29.7311C22.203 30.5647 22.5154 31.1902 22.9319 31.6088C23.139 31.8165 23.7119 32.2856 24.6479 33.0175C25.6861 33.956 26.2079 35.103 26.2079 36.4604C26.2079 37.3985 25.7399 39.2235 24.8039 41.9372C24.5941 42.9782 24.4919 43.815 24.4919 44.4401H26.3639C26.9879 44.4401 27.351 44.1271 27.4559 43.502C27.663 44.7534 28.026 45.8492 28.5479 46.7873L29.3279 47.5697H25.2719V47.7262C25.3744 48.142 25.7914 48.7159 26.5199 49.447C26.8319 49.6548 27.039 49.8116 27.1439 49.9161H26.9879C25.947 49.706 24.855 49.0801 23.7119 48.0383L23.2439 47.5689H10.2959C9.98395 48.09 9.61852 48.559 9.20395 48.978C8.37014 49.706 7.53905 50.0733 6.70797 50.0733H7.01996C7.64396 50.0733 8.42396 49.6556 9.35995 48.8215C9.67195 49.1345 9.98395 49.5499 10.2959 50.0733H31.9798V50.2298ZM6.39597 44.5966C5.77197 44.5966 5.30397 44.9612 4.99198 45.6919V46.0049C4.99198 46.8389 5.45997 47.3084 6.39597 47.414H6.55197C7.07144 47.414 7.48796 47.047 7.79996 46.3182V46.0049C7.79996 45.2741 7.48796 44.8556 6.86397 44.7534C6.75906 44.6478 6.60306 44.5966 6.39597 44.5966ZM6.39597 50.2298C5.45997 50.4375 4.99198 50.9066 4.99198 51.6385C4.99198 52.4722 5.45997 52.8904 6.39597 52.8904C7.33196 52.8904 7.79996 52.4722 7.79996 51.6385C7.79996 51.0122 7.43414 50.5432 6.70797 50.2298H6.39597ZM6.70797 50.0733H6.23997V50.2294L6.70797 50.2298V50.0733ZM15.4439 55.2372V55.5501C15.4439 56.2781 14.9759 56.8532 14.0399 57.271V57.4271C14.3519 57.4271 14.6639 57.53 14.9759 57.7401C15.2879 58.2611 15.4439 58.6789 15.4439 58.9919V59.3048C15.4439 60.0336 14.9759 60.6083 14.0399 61.0261L13.5719 61.1822C12.6359 61.1822 12.0119 60.7128 11.6999 59.7735C11.595 59.6679 11.5439 59.5118 11.5439 59.3041V59.1491C11.5439 58.2103 12.0119 57.6356 12.9479 57.4279V57.2714C12.531 57.2714 12.1141 56.9044 11.6999 56.1756C11.595 55.9656 11.5439 55.7578 11.5439 55.5497V55.2364C11.5439 54.5056 12.0119 53.9306 12.9479 53.5155H13.7279C14.4541 53.5155 15.027 53.9313 15.4439 54.7673C15.4439 54.9754 15.4439 55.1323 15.4439 55.2372ZM45.8638 7.511V27.0709L43.6798 29.4181C45.1349 30.7724 45.8638 31.5032 45.8638 31.6088V47.5697H42.8998H42.7438V32.8606L41.4958 31.6088L40.2478 32.8606V47.5697H35.2558V52.2641C35.2558 54.4556 34.4224 56.1224 32.7598 57.2718C31.926 57.8981 30.1078 58.7826 27.2999 59.9323C25.8424 60.5582 25.1159 61.2867 25.1159 62.123V62.2795C25.1159 62.4868 25.167 62.7998 25.2719 63.2176C24.7504 63.4253 24.2824 63.687 23.8679 64C24.5941 62.0178 25.2181 60.7652 25.7399 60.2445C26.571 59.5134 27.507 58.8358 28.5479 58.2103C29.3789 57.6872 30.2638 56.9584 31.1998 56.0196C31.8238 55.1828 32.1358 54.1927 32.1358 53.0457V43.9707C32.1358 43.3444 31.926 42.562 31.5118 41.6235C32.8624 41.2057 33.7984 40.372 34.3198 39.1202C34.9438 37.6583 35.2558 36.8243 35.2558 36.6165V44.4405H37.2838V31.6088L39.3118 29.4181L37.2838 27.0709V11.8924C37.2838 8.13692 36.3478 5.42592 34.4758 3.7555C32.8109 2.29594 30.9389 1.56479 28.8599 1.56479C26.466 1.56479 24.387 2.55765 22.6199 4.5379C21.267 6.31315 20.5919 8.19051 20.5919 10.1711V10.4841C20.5919 12.8853 21.579 15.076 23.5559 17.0562C24.699 17.9951 25.8959 18.6746 27.1439 19.0905C27.7679 19.4034 28.65 19.6651 29.7959 19.8729H29.6399C28.806 19.8729 27.4559 19.5087 25.5839 18.7775C24.543 18.2568 23.607 17.4744 22.7759 16.4303C21.111 14.5526 20.2799 12.5183 20.2799 10.3276V9.85819C20.2799 7.45936 21.1625 5.21741 22.9319 3.12958C25.0114 1.04411 27.4559 0 30.2638 0C33.0718 0 35.514 1.09535 37.5958 3.28606C38.8438 4.74836 39.5704 6.20831 39.7798 7.66748C40.0918 9.02455 40.2478 10.9027 40.2478 13.3007V25.8191L41.4958 27.0709L42.7438 25.8191V0.156479H42.8998C43.3144 1.72127 43.7824 2.81702 44.3038 3.44254C45.2398 4.38142 46.0198 4.95609 46.6438 5.16381C46.1223 5.9998 45.8638 6.7822 45.8638 7.511ZM57.2517 51.1687C57.2517 51.795 57.0957 52.4205 56.7837 53.0465H35.4118V50.2298L35.5678 50.0733H57.0957C57.1983 50.1762 57.2517 50.5428 57.2517 51.1687ZM65.3637 16.5868C65.3637 21.4889 62.4508 27.1738 56.6277 33.6434C54.4437 36.3552 52.9859 38.1813 52.2597 39.1202C49.2423 43.1883 47.7358 46.7877 47.7358 49.9173H47.5798C47.5798 47.9347 48.2548 45.5362 49.6077 42.72C50.5437 40.737 52.5179 37.92 55.5357 34.2693C59.2797 29.9908 61.6197 26.9148 62.5557 25.0371C64.2182 22.0104 65.0517 19.3009 65.0517 16.9001V16.4303C65.0517 14.3448 64.3743 12.4671 63.0237 10.7971C61.6708 9.65046 60.1623 9.07619 58.4997 9.07619C56.8348 9.07619 55.3259 9.7021 53.9757 10.9539C53.2468 11.998 52.8837 13.2499 52.8837 14.7094C52.8837 16.0665 53.1957 17.4236 53.8197 18.7779C54.1317 18.4649 54.4437 18.3085 54.7557 18.3085H54.9117C55.7428 18.3085 56.3668 18.8319 56.7837 19.8733V20.3423C56.7837 21.1759 56.3157 21.8015 55.3797 22.22H54.9117C53.9757 22.22 53.3517 21.8022 53.0397 20.9682V20.4988V20.3423C53.0397 19.8216 53.1957 19.3005 53.5077 18.7775C52.8837 17.4232 52.5717 16.0657 52.5717 14.709V14.5526C52.5717 11.8404 53.8712 10.0143 56.4717 9.0758C57.3028 8.86807 58.0317 8.76244 58.6557 8.76244C60.7352 8.76244 62.5557 9.70132 64.1157 11.5791C64.9468 13.2495 65.3637 14.9195 65.3637 16.5868ZM108.263 50.2298V53.0461H60.0597H59.9037C60.0059 52.523 60.0597 51.6377 60.0597 50.3859V50.2298L60.2157 50.0737H64.1157C63.2822 50.0737 62.3997 49.6043 61.4637 48.665C61.2539 48.3517 60.9957 47.9855 60.6837 47.5693H60.0597V51.3256C60.0597 53.724 58.8117 55.6018 56.3157 56.958C55.4823 57.2714 54.6508 57.4275 53.8197 57.4275C51.6357 57.4275 49.8659 56.435 48.5158 54.454C48.2038 53.8277 48.0478 53.4099 48.0478 53.2025H48.2038C48.4108 53.2025 48.6183 53.4099 48.8278 53.8285C49.8659 55.1832 51.1139 55.8627 52.5717 55.8627H52.7277C54.2877 55.8627 55.5868 55.1319 56.6277 53.6716C57.1468 52.8352 57.4077 51.9507 57.4077 51.0114C57.4077 49.4466 56.6788 48.1408 55.2237 47.0995V46.9438L56.7837 45.379C56.2623 44.6478 56.0037 43.7598 56.0037 42.7188C56.0037 40.9436 56.6277 39.0654 57.8757 37.0856H58.0317C57.6152 38.1273 57.4077 39.2767 57.4077 40.5281C57.4077 42.3006 57.8757 43.6041 58.8117 44.4401H60.8397C61.1517 43.502 61.7757 42.8217 62.7117 42.4063C63.3357 42.0929 63.9597 41.9372 64.5837 41.9372C65.8317 41.9372 66.9237 42.5631 67.8597 43.815C68.1717 44.1279 68.3277 44.3356 68.3277 44.4409H74.5676V43.6585C74.5676 42.407 75.0356 40.4237 75.9716 37.7127C76.0742 37.1892 76.1276 36.7198 76.1276 36.304C76.1276 35.3655 75.6058 34.7392 74.5676 34.4262L73.7876 34.2697C72.4347 34.2697 71.4987 34.9469 70.9796 36.304L70.8236 36.7734H70.6676V36.6169C70.6676 34.6347 71.4987 33.226 73.1636 32.392C72.7467 31.3483 72.5396 30.4094 72.5396 29.5754C72.5396 29.2624 72.6422 28.3748 72.8516 26.9152V26.2893C72.8516 25.8711 72.6422 25.4525 72.2276 25.0375V24.881L72.3836 24.7249C73.0076 25.2452 73.5267 26.1841 73.9436 27.5411L74.4116 30.0448C74.6187 30.7736 75.2427 31.504 76.2836 32.2359C77.9458 33.1744 78.7796 34.5831 78.7796 36.4612C78.7796 37.3993 78.3116 39.2243 77.3756 41.938C77.1658 42.7716 77.0636 43.5028 77.0636 44.1287V44.4417H78.7796C79.4036 44.4417 79.8178 44.1287 80.0276 43.5036C80.1302 43.5036 80.2343 43.9194 80.3396 44.755C80.6516 46.0065 81.1196 46.9461 81.7436 47.5712H81.5876H77.6876C77.8947 48.3 78.5187 49.0824 79.5596 49.9184C78.1022 49.6055 76.8538 48.8231 75.8156 47.5712H68.3277C67.9108 48.4053 67.2357 49.136 66.2997 49.7627C65.6757 49.9701 65.2588 50.0757 65.0517 50.0757H108.263V50.2298ZM64.5837 44.5966C63.6477 44.6995 63.1797 45.1689 63.1797 46.0049C63.2823 46.9438 63.7499 47.414 64.5837 47.414C65.2077 47.414 65.6222 47.1006 65.8317 46.4751C65.9342 46.265 65.9877 46.1082 65.9877 46.0057C65.7782 45.066 65.3099 44.5966 64.5837 44.5966ZM87.6716 53.2029C87.6716 54.2443 87.0987 55.34 85.956 56.4886C84.4985 57.74 83.0431 58.6253 81.5884 59.1491C79.5066 59.8772 78.3124 60.5575 78.0004 61.183C77.6884 61.5988 77.5324 61.9114 77.5324 62.1215C77.5324 62.4344 77.5835 62.7982 77.6884 63.2168L76.4404 63.9992C76.855 62.3292 77.479 61.0774 78.3124 60.2437C79.351 59.4069 80.4429 58.5733 81.5884 57.7401C83.5629 56.4886 84.5524 55.0259 84.5524 53.359V53.2029H84.7084H87.6716ZM99.0595 5.32029C98.643 6.05144 98.4355 6.7822 98.4355 7.51139V27.0713L96.2507 29.4185L98.4355 31.6092V47.5701H98.2795H95.3155V32.8606L94.0675 31.6088L92.8195 32.8606V47.5697H92.6635H87.8276V49.9169H87.6716H84.7076H84.5516V49.7604V44.2836V44.1271C84.5516 43.3964 84.3425 42.5623 83.9276 41.6239C85.1756 41.2061 86.0577 40.4237 86.5796 39.2767C86.9941 38.5455 87.3596 37.6579 87.6716 36.6161H87.8276V44.4401H89.6996V31.6088L91.7275 29.4181L89.6996 27.0709V7.98044C89.6996 6.93868 89.4386 5.9998 88.9196 5.16421C90.1675 4.64313 91.1035 3.8091 91.7275 2.66054C92.1421 1.82689 92.4537 0.993252 92.6631 0.15687H92.8188V25.8191L94.0667 27.0709L95.3144 25.9752V0C95.6267 1.25183 96.0405 2.24391 96.562 2.9731C97.0814 3.91198 97.9125 4.64352 99.0579 5.16421V5.32029H99.0595ZM117.155 54.6112C117.155 56.5919 116.633 58.0542 115.595 58.9927C114.867 59.8267 113.93 60.2445 112.787 60.2445C111.123 60.2445 109.823 59.3056 108.887 57.4279C108.575 56.6971 108.419 55.966 108.419 55.2372V47.5697H101.243C101.139 47.5697 101.088 47.5161 101.088 47.414C101.088 45.3254 101.868 43.6049 103.428 42.2502C103.74 40.9983 104.259 39.9542 104.988 39.1206C105.403 38.7028 105.871 38.2838 106.392 37.8688C106.495 37.0324 106.963 36.0423 107.797 34.8956C109.147 33.7463 109.825 32.9639 109.825 32.5485C110.551 30.9837 110.917 29.4701 110.917 28.0102C110.917 26.6531 110.605 25.7655 109.981 25.35C110.5 25.0371 110.864 24.6189 111.073 24.0982C111.28 23.4723 111.385 23.1053 111.385 23.0028H111.541V55.0811C111.541 56.5402 111.956 57.2722 112.789 57.2722C113.515 57.2722 113.932 56.6459 114.037 55.394V53.2029H117.157V54.6112H117.155ZM108.419 39.7457C106.754 40.5798 105.923 41.7264 105.923 43.1887V43.6577C105.507 43.8654 105.143 44.1271 104.831 44.4401H108.419V39.7457ZM155.843 53.0465H111.695H111.539V50.2298L111.695 50.0737H133.379C132.858 49.1349 132.078 48.4033 131.039 47.8826C131.558 47.0463 131.819 46.3178 131.819 45.6915V45.379C131.819 44.7527 131.454 43.6041 130.727 41.9364L136.031 50.0733H138.839C137.591 47.9851 136.706 46.5768 136.187 45.8484C135.563 45.3246 135.042 44.9604 134.627 44.7527C135.042 43.9163 135.251 43.1339 135.251 42.4055C135.251 41.7792 134.939 40.6302 134.316 38.9625L141.648 50.0726H144.612C141.804 45.7936 140.139 43.344 139.62 42.7177C138.996 42.0913 138.474 41.7252 138.06 41.6223L138.528 40.6838C138.735 40.1604 138.84 39.6397 138.84 39.119C138.84 38.4927 138.528 37.3442 137.904 35.6761H138.06C143.988 44.8548 147.055 49.654 147.264 50.0726H147.577H152.569L152.724 49.9161V43.8142C152.724 42.9774 152.463 42.195 151.944 41.467L153.037 40.9976C154.075 40.3716 154.96 38.9633 155.689 36.7726L155.844 36.4597L155.843 53.0465ZM123.551 5.16381C123.03 5.9998 122.771 6.98993 122.771 8.13692V27.0709L121.367 28.4792L120.587 29.4181L122.771 31.6088V47.5697H122.615H117.155V49.9169H114.035V31.6088L116.063 29.4181L114.035 27.0709V7.511C114.035 6.7822 113.774 5.9998 113.255 5.16381C114.605 4.53751 115.541 3.65262 116.063 2.50328C116.375 1.87775 116.738 1.04411 117.155 0V25.9755L118.403 27.0713L119.651 25.8195V0.156479H119.807C120.221 1.72127 120.689 2.76538 121.211 3.28606C121.626 3.91198 122.094 4.38142 122.615 4.69438L123.551 5.16381ZM118.403 31.6088L117.155 32.8606V44.4401H119.651V32.8606L118.403 31.6088ZM145.235 10.0147C145.235 12.5183 144.35 14.7626 142.583 16.7433C141.437 17.7874 140.501 18.4645 139.775 18.7775C138.734 19.3005 137.486 19.6651 136.031 19.8729H135.875L138.059 19.2469C139.619 18.7259 140.97 17.8918 142.115 16.7433C144.09 14.8655 145.079 12.7288 145.079 10.3276C145.079 7.72108 143.987 5.37389 141.803 3.28606C140.243 2.13946 138.63 1.56479 136.968 1.56479H136.656C134.16 1.56479 131.976 2.71413 130.103 5.00734C129.479 5.94621 129.114 6.67736 129.011 7.19804C128.595 8.24215 128.387 10.0683 128.387 12.6748V47.5697H125.423H125.267V14.0831C125.267 10.0147 125.579 7.35452 126.203 6.10269C126.929 3.91198 128.438 2.2443 130.727 1.09535C132.287 0.366944 133.794 0 135.251 0H135.563C138.578 0 141.179 1.30543 143.363 3.91198C144.611 5.89496 145.235 7.92919 145.235 10.0147ZM155.999 59.3056C155.999 60.0344 155.531 60.6091 154.595 61.0269L154.127 61.183H153.971C153.137 61.183 152.567 60.7139 152.256 59.7743C152.15 59.5642 152.1 59.4073 152.1 59.3048V59.1491C152.1 58.2103 152.619 57.5844 153.66 57.271H153.972C155.011 57.271 155.688 57.7917 156 58.8358L155.999 59.3056Z" fill="#F7E0CF"/>
</svg>
